<svg id="圖層_1" data-name="圖層 1" xmlns="http://www.w3.org/2000/svg" viewBox="0 0 768 1366"><defs><style>.cls-1{fill:#00bcd4;}.cls-2{fill:#fff;}</style></defs><title>未命名-2</title><circle class="cls-1" cx="442" cy="628" r="24.5"/><polygon class="cls-2" points="432.5 617.5 435.5 612.5 456.5 624.5 457.5 626.74 454.5 630.5 450.5 630.5 448.5 634.5 449.5 638.5 447.5 642.5 445.5 642.5 426.5 630.5 425.5 627.5 427.5 624.5 431.5 624.5 434.5 621.5 432.5 617.5"/><polygon class="cls-1" points="434.22 629.13 432.58 631.97 432.78 632.7 433.58 632.55 435.22 629.71 435.04 628.99 434.22 629.13"/><polygon class="cls-1" points="437.52 623.61 435.88 626.45 436.08 627.17 436.89 627.03 438.52 624.19 438.34 623.47 437.52 623.61"/><polygon class="cls-1" points="440.77 618.37 439.13 621.21 439.33 621.93 440.13 621.79 441.77 618.95 441.59 618.23 440.77 618.37"/></svg>